<svg xmlns="http://www.w3.org/2000/svg" viewBox="0 0 208 170">
	<path
		d="M158 0a116 116 0 0 0-49 11v146c29.7-17.3 62.4-16.4 99 1V12a121.6 121.6 0 0 0-50-12ZM6.9 11.5 0 15v6.2L6.8 18v-6.5zm99.1.5-18 9v18l18-9zm-82.3 2.8L15 20v8.6l8.4-4.9.2-9zM84 18.2l-17.4 8.7v16.8L84 35.1Zm-21.5 1.2L48 26v15l14.4-7Zm-19.6 1.9L31 26.9v10.5l11.7-5.5zM106 33l-18 9v18l18-9zm0 21-18 9v18l18-9zM0 77.5v6l7-2.8V74l-7 3.5zM88 84v18l18-9V75zm-64.4-6.8L15 82.6v8.9l8.6-5 .1-9.2zM84 80.7l-17.4 8.7v16.8L84 97.5Zm-21 1.5-15.1 6.5.3 15 14.5-7zm-20.1 1.7L31 89.4l.1 10.6 11.7-5.2.1-11Zm63.1 12-18 9v18l18-9zm0 21-18 9v18l18-9zM7 137l-7 3.5v6.1l7-3zm81 10v18l18-9v-18zm-64.5-7.1-8.7 5.3v8.9l8.6-4.9zm60.5 3.8-17.5 8.7V169l17.5-8.7Zm-21.3 1-14.6 6.8-.2 14.6 14.6-6.7.2-14.6zm-20 1.8L30.8 152l.2 10.8 11.9-5.6z" />
	<path fill="#f0f"
		d="m7 95.8-7 3v6l7-2.7zm16.6 3-8.7 5.2.2 8.5 8.5-4.9zm60.4 3.4L66.5 111v16.7L84 119Zm-21.4 1.1L48 110.4l.1 14.8 14.6-7v-15zm-20 1.7L31 111v10.5l12-5.3zM7 115.8l-7 3.5v6l7-2.8v-6.6zm16.5 3.1-8.4 5.2v8.8l8.5-4.9zm60.5 3.4-17.5 9.1.2 16.4L84 139Zm-21.3 1.5L48 130.5V145l14.7-6.8zm-19.8 1.5L31 131l.2 10.8 11.5-5.5.1-10.9z" />
	<path fill="#0ff"
		d="M6.8 33 0 36v6.3l6.9-2.8v-6.6zm16.7 2.9L14.8 41l.2 9 8.5-4.9zm60.2 3.7-17.2 8.5v16.7L84 56.1V39.6Zm-21 1.1-14.6 6.7-.2 15 14.6-7zm-19.9 2-11.9 5.6.1 10.5 12-5.6zM0 56.5v5.8l7-2.6V53l-7 3.5zm23.7-.2L15 61.5l-.2 9 8.8-5 .1-9.3zm43 12.1-.2 16.5L84 76.5V59.7l-17.3 8.7zm-4-7.3-14.8 6.5.3 15 14.5-7zm-19.9 1.4L31 68.3 30.8 79l12-5.2z" />
	<path fill="#c3ff00"
		d="M109 31v105a140 140 0 0 1 45.7-10.9 97.2 97.2 0 0 1 33.3 4.8V24.3c-10.3-4.2-22-6-33.1-5.3-15.9.7-24.6 3.2-45.9 12Z" />
	<ellipse cx="136.76115" cy="57.113079" rx="4.7878494" ry="13.118707" />
	<ellipse cx="160.79616" cy="57.113079" rx="4.7878494" ry="13.118707" />
	<path
		d="M178.2 75a10.5 10.5 0 0 0-2.5.3c-1.5.4-1 2.7.6 2.3h1.4c0 .9 0 1.8-.2 2.7v.2a27.3 27.3 0 0 1-1.8 6v.2a26.1 26.1 0 0 1-3.4 5.6v.1l-.2.3a30 30 0 0 1-4.4 4.4l-.3.3h-.2a31.2 31.2 0 0 1-7 4.1 30.5 30.5 0 0 1-14.4 2.2c-3.3-.2-6.5-1-9.5-2.2h-.3l-.2-.2c-2.3-1-4.4-2-6.3-3.5v-.1l-.4-.4a30.2 30.2 0 0 1-6.5-7.3 27.4 27.4 0 0 1-3.5-9.8v-2.3h1.4c.7 0 1-.3 1-.8a1.6 1.6 0 0 0-1.3-1.7c-2.6-.2-4.4-.2-6.3 1-1 .6-.8 1.6-.4 2.2.3.3.8.3 1.3 0l1.5-.6A29.2 29.2 0 0 0 127 99.1a33.9 33.9 0 0 0 48-5.7 28.1 28.1 0 0 0 5.4-15.6h.2l.5.3.1.1c.6.5 1.2.6 1.7 0 .4-.4.6-1.3 0-1.6a7.3 7.3 0 0 0-4.7-1.6z" />
</svg>
